{"title":"W.C.FIELDS_Comedy.Collection_My.Little.Chickadee.1940.DVDRip.[2o","uid":10956013,"size":4433055629,"categoryP":"video","categoryS":"movies","magnet":"?xt=urn:btih:0926c6b4065b3fdc49d77db0a4863dc3726ef855&amp;dn=W.C.FIELDS_Comedy.Collection_My.Little.Chickadee.1940.DVDRip.%5B2o&amp;tr=udp%3A%2F%2Ftracker.openbittorrent.com%3A80&amp;tr=udp%3A%2F%2Fopen.demonii.com%3A1337&amp;tr=udp%3A%2F%2Ftracker.coppersurfer.tk%3A6969&amp;tr=udp%3A%2F%2Fexodus.desync.com%3A6969","seeders":1,"leechers":0,"uploader":"Agent666","files":-1,"time":1409680939,"description":"W.C.FIELDS_Comedy.Collection_My.Little.Chickadee.1940.DVDRip.[2of5]-Agent666.mkv\n\nDVD 2 OF 5\n\nâ– â– â– â– â– â– â– â– â– â– â– â– â– â– â– â– â– â– â– â– â– â– â– â– â– â– â– â– â– â– â– â–  I M D B : &lt;a href=&quot;\nhttp://www.imdb.com/title/tt0032828/&quot; rel=&quot;nofollow&quot; target=&quot;_NEW&quot;&gt;\nhttp://www.imdb.com/title/tt0032828/&lt;/a&gt;\n\nMy Little Chickadee (1940)\n83 min  -  Comedy | Western\nRating:  7.0\nCast:\nMae West (Flower Belle Lee)\nW.C. Fields (Cuthbert J. Twillie)\nJoseph Calleia (Jeff Badger)\n\nStory Line:\nRightly suspected of illicit relations with the Masked Bandit, Flower Belle Lee is run out of Little Bend. On the train she meets con man Cuthbert J. Twillie and pretends to marry him for &quot;respectability.&quot; Arrived in Greasewood City with his unkissed bride, Twillie is named sheriff by town boss Jeff Badger...with an ulterior motive. Meanwhile, both stars inimitably display their specialties, as Twillie tends bar and plays cards, and Flower Belle tames the town's rowdy schoolboys...\n\nâ– â– â– â– â– â– â– â– â– â– â– â– â– â– â– â– â– â– â– â– â– â– â– â– â– â– â– â– â– â– â– â–  V I D E O :\n\nFormat                                   : Matroska\nFormat version                           : Version 4 / Version 2\nFile size                                : 4.13 GiB\nDuration                                 : 1h 23mn\nOverall bit rate mode                    : Variable\nOverall bit rate                         : 7 069 Kbps\nEncoded date                             : UTC 2014-09-01 16:11:31\nWriting application                      : mkvmerge v7.0.0 ('Where We Going') 64bit\nWriting library                          : libebml v1.3.0 + libmatroska v1.4.1\n\nVIDEO:\n\nID                                       : 1\nFormat                                   : MPEG Video\nFormat version                           : Version 2\nFormat profile                           : Main@Main\nFormat settings, BVOP                    : No\nFormat settings, Matrix                  : Custom\nCodec ID                                 : V_MPEG2\nCodec ID/Info                            : MPEG 1 or 2 Video\nDuration                                 : 1h 23mn\nBit rate mode                            : Variable\nBit rate                                 : 6 737 Kbps\nMaximum bit rate                         : 9 000 Kbps\nWidth                                    : 720 pixels\nHeight                                   : 480 pixels\nDisplay aspect ratio                     : 4:3\nFrame rate mode                          : Constant\nFrame rate                               : 29.970 fps\nStandard                                 : NTSC\nColor space                              : YUV\nChroma subsampling                       : 4:2:0\nBit depth                                : 8 bits\nScan type                                : Interlaced\nScan order                               : Top Field First\nCompression mode                         : Lossy\nBits/(Pixel*Frame)                       : 0.650\nStream size                              : 3.93 GiB (95%)\nDefault                                  : Yes\nForced                                   : No\n\nAUDIO:\n\nID                                       : 2\nFormat                                   : AC-3\nFormat/Info                              : Audio Coding 3\nMode extension                           : CM (complete main)\nFormat settings, Endianness              : Big\nCodec ID                                 : A_AC3\nDuration                                 : 1h 23mn\nBit rate mode                            : Constant\nBit rate                                 : 192 Kbps\nChannel(s)                               : 2 channels\nChannel positions                        : Front: L R\nSampling rate                            : 48.0 KHz\nBit depth                                : 16 bits\nCompression mode                         : Lossy\nStream size                              : 115 MiB (3%)\nDefault                                  : Yes\nForced                                   : No\n\nâ– â– â– â– â– â– â– â– â– â– â– â– â– â– â– â– â– â– â– â– â– â– â– â– â– â– â– â– â– â– â– â– â– â– â– â– â– â– â– â– â– â– â– â– â– â– â– â– â– â– â– â– â– â– â– â– \n\nSCREENS:\n &lt;a href=&quot;\nhttp://i.imgur.com/uNFJ3ls.jpg&quot; rel=&quot;nofollow&quot; target=&quot;_NEW&quot;&gt;\nhttp://i.imgur.com/uNFJ3ls.jpg&lt;/a&gt; &lt;a href=&quot;\thttp://i.imgur.com/DEOAfqt.jpg&quot; rel=&quot;nofollow&quot; target=&quot;_NEW&quot;&gt;\thttp://i.imgur.com/DEOAfqt.jpg&lt;/a&gt;\n &lt;a href=&quot;\nhttp://i.imgur.com/31RWB9E.jpg&quot; rel=&quot;nofollow&quot; target=&quot;_NEW&quot;&gt;\nhttp://i.imgur.com/31RWB9E.jpg&lt;/a&gt; &lt;a href=&quot;\thttp://i.imgur.com/IzJhOjg.jpg&quot; rel=&quot;nofollow&quot; target=&quot;_NEW&quot;&gt;\thttp://i.imgur.com/IzJhOjg.jpg&lt;/a&gt;\n &lt;a href=&quot;\nhttp://i.imgur.com/VMng4ht.jpg&quot; rel=&quot;nofollow&quot; target=&quot;_NEW&quot;&gt;\nhttp://i.imgur.com/VMng4ht.jpg&lt;/a&gt; &lt;a href=&quot;\thttp://i.imgur.com/8e5qRw7.jpg&quot; rel=&quot;nofollow&quot; target=&quot;_NEW&quot;&gt;\thttp://i.imgur.com/8e5qRw7.jpg&lt;/a&gt;\n &lt;a href=&quot;\nhttp://i.imgur.com/33XM1Uk.jpg&quot; rel=&quot;nofollow&quot; target=&quot;_NEW&quot;&gt;\nhttp://i.imgur.com/33XM1Uk.jpg&lt;/a&gt; &lt;a href=&quot;\thttp://i.imgur.com/uFD6qZf.jpg&quot; rel=&quot;nofollow&quot; target=&quot;_NEW&quot;&gt;\thttp://i.imgur.com/uFD6qZf.jpg&lt;/a&gt;\n &lt;a href=&quot;\nhttp://i.imgur.com/LYknmYe.jpg&quot; rel=&quot;nofollow&quot; target=&quot;_NEW&quot;&gt;\nhttp://i.imgur.com/LYknmYe.jpg&lt;/a&gt; &lt;a href=&quot;\thttp://i.imgur.com/QLy7IjE.jpg&quot; rel=&quot;nofollow&quot; target=&quot;_NEW&quot;&gt;\thttp://i.imgur.com/QLy7IjE.jpg&lt;/a&gt;\n &lt;a href=&quot;\nhttp://i.imgur.com/mw45fQT.jpg&quot; rel=&quot;nofollow&quot; target=&quot;_NEW&quot;&gt;\nhttp://i.imgur.com/mw45fQT.jpg&lt;/a&gt; &lt;a href=&quot;\thttp://i.imgur.com/VdZRm2z.jpg&quot; rel=&quot;nofollow&quot; target=&quot;_NEW&quot;&gt;\thttp://i.imgur.com/VdZRm2z.jpg&lt;/a&gt;\n\n\nTHUMBNAILS: &lt;a href=&quot;\thttp://imgur.com/CrG2BRY&quot; rel=&quot;nofollow&quot; target=&quot;_NEW&quot;&gt;\thttp://imgur.com/CrG2BRY&lt;/a&gt;\n\nIMDB IMAGE: &lt;a href=&quot;\thttp://i.imgur.com/sJHDXQI.jpg&quot; rel=&quot;nofollow&quot; target=&quot;_NEW&quot;&gt;\thttp://i.imgur.com/sJHDXQI.jpg&lt;/a&gt;\n\nDVD BOX IMAGE: &lt;a href=&quot;\thttp://i.imgur.com/OuHzpe3.jpg&quot; rel=&quot;nofollow&quot; target=&quot;_NEW&quot;&gt;\thttp://i.imgur.com/OuHzpe3.jpg&lt;/a&gt;\n\nMOVIE POSTER: &lt;a href=&quot;\thttp://i.imgur.com/tbZj0hU.jpg&quot; rel=&quot;nofollow&quot; target=&quot;_NEW&quot;&gt;\thttp://i.imgur.com/tbZj0hU.jpg&lt;/a&gt;\n\nWIKIPEDIA: &lt;a href=&quot;\thttp://en.wikipedia.org/wiki/My_Little_Chickadee&quot; rel=&quot;nofollow&quot; target=&quot;_NEW&quot;&gt;\thttp://en.wikipedia.org/wiki/My_Little_Chickadee&lt;/a&gt;\n\nIMDB:\t &lt;a href=&quot;\thttp://www.imdb.com/title/tt0032828/&quot; rel=&quot;nofollow&quot; target=&quot;_NEW&quot;&gt;\thttp://www.imdb.com/title/tt0032828/&lt;/a&gt;\n\n# THIS IS DVD 2 OF 5 #\n","torrent":{"xt":"urn:btih:0926c6b4065b3fdc49d77db0a4863dc3726ef855","amp;dn":"W.C.FIELDS_Comedy.Collection_My.Little.Chickadee.1940.DVDRip.%5B2o","amp;tr":["udp%3A%2F%2Ftracker.openbittorrent.com%3A80","udp%3A%2F%2Fopen.demonii.com%3A1337","udp%3A%2F%2Ftracker.coppersurfer.tk%3A6969","udp%3A%2F%2Fexodus.desync.com%3A6969"],"infoHash":"0926c6b4065b3fdc49d77db0a4863dc3726ef855","infoHashBuffer":{"type":"Buffer","data":[9,38,198,180,6,91,63,220,73,215,125,176,164,134,61,195,114,110,248,85]},"announce":[],"urlList":[]}}